<svg width="188" height="38" viewBox="0 0 188 38" fill="none" xmlns="http://www.w3.org/2000/svg">
<g clip-path="url(#clip0_293_4789)">
<path d="M21.2029 9.86133C21.2029 10.5238 21.7397 11.0593 22.4002 11.0593C23.0606 11.0593 23.5974 10.5221 23.5974 9.86133C23.5974 9.20052 23.0606 8.6634 22.4002 8.6634C21.7397 8.6634 21.2029 9.20052 21.2029 9.86133Z" fill="#4C4646"/>
<path d="M28.4032 21.0324C26.7098 19.3397 18.6696 11.2982 18.6628 11.2931C15.2744 7.906 16.9678 4.8561 18.6611 3.67003C23.5483 0.247371 29.1602 7.22824 23.9106 11.2948C23.428 11.6692 23.6583 12.5079 23.931 12.7807L26.1578 15.0072C26.5557 15.3749 27.1789 15.4782 27.9172 15.2952C28.2135 15.2224 28.5234 14.8513 28.2999 14.4345L27.3669 12.696C27.2619 12.3571 27.3127 12.081 27.4668 11.8031C28.3135 10.2781 29.0704 8.7193 28.6521 6.21161C27.6361 0.11182 20.1852 -2.09088 15.9517 2.31452C13.3778 4.99335 13.1305 9.60377 16.1702 12.9773C16.3615 13.1891 26.3762 23.2656 26.4795 23.369C26.5676 23.4554 28.6166 25.5124 28.3338 28.7164C28.3304 28.7503 28.305 28.7825 28.2728 28.7944C28.2457 28.8046 28.2186 28.7961 28.1932 28.7707L0.538498 1.09117C0.291263 0.843795 0 1.10473 0 1.31653C0 3.51923 0.856855 5.58977 2.41308 7.14861L25.7818 30.5396C27.4515 32.2103 25.5244 33.8809 25.4076 33.8623C25.3805 33.8589 25.3348 33.8437 25.3195 33.8301L0.538498 9.02768C0.289569 8.7803 0 9.04123 0 9.25134C0 11.454 0.856855 13.5263 2.41477 15.0834L21.9378 34.6214C22.0479 34.7315 22.1614 34.8823 22.0733 34.9772C21.7042 35.3686 18.6357 34.8772 16.9322 33.3642L0.538498 16.9642C0.29465 16.7202 0 16.9879 0 17.1963C0 19.3973 0.855161 21.4679 2.40969 23.025C7.99279 28.6199 14.6918 35.3296 14.9001 35.5126C21.2774 41.1583 31.3108 36.5598 31.3108 28.1116C31.3108 27.0543 31.4919 24.1196 28.4015 21.0341L28.4032 21.0324Z" fill="#4C4646"/>
<path d="M45.0645 24.3653L36.8498 19.8921C36.7838 19.8565 36.7431 19.787 36.7431 19.7125V16.422C36.7431 16.3678 36.7652 16.3169 36.8024 16.278L39.0038 14.0499C39.0428 14.0109 39.0953 13.9889 39.1495 13.9889H46.2871C46.3413 13.9889 46.3938 14.0109 46.431 14.0482L48.6578 16.2763C48.6968 16.3152 48.7171 16.3661 48.7171 16.4203V18.4265C48.7171 18.54 48.6257 18.6315 48.5122 18.6315H45.3202C45.2067 18.6315 45.1153 18.54 45.1153 18.4265V17.0218C45.1153 16.9083 45.0238 16.8168 44.9104 16.8168H40.7057C40.5922 16.8168 40.5008 16.9083 40.5008 17.0218V17.9232C40.5008 17.9978 40.5414 18.0672 40.6075 18.1028L48.8475 22.576C48.9135 22.6116 48.9542 22.6811 48.9542 22.7556V26.0444C48.9542 26.0986 48.9322 26.1512 48.8949 26.1884L46.6681 28.4166C46.6292 28.4555 46.5783 28.4759 46.5242 28.4759H39.0936C39.0394 28.4759 38.9869 28.4538 38.9496 28.4166L36.7228 26.1884C36.6839 26.1495 36.6636 26.0986 36.6636 26.0444V24.1992C36.6636 24.0857 36.755 23.9942 36.8685 23.9942H40.0334C40.1469 23.9942 40.2383 24.0857 40.2383 24.1992V25.4446C40.2383 25.5581 40.3297 25.6496 40.4432 25.6496H44.9679C45.0814 25.6496 45.1728 25.5581 45.1728 25.4446V24.5432C45.1728 24.4686 45.1322 24.3992 45.0662 24.3636L45.0645 24.3653Z" fill="#4C4646"/>
<path d="M52.1581 11.6506V8.85825C52.1581 8.74473 52.2495 8.65323 52.363 8.65323H55.848C55.9614 8.65323 56.0529 8.74473 56.0529 8.85825V11.6506C56.0529 11.7641 55.9614 11.8556 55.848 11.8556H52.363C52.2495 11.8556 52.1581 11.7641 52.1581 11.6506ZM52.1852 28.2759V14.1956C52.1852 14.082 52.2766 13.9905 52.3901 13.9905H55.7938C55.9072 13.9905 55.9987 14.082 55.9987 14.1956V28.2759C55.9987 28.3894 55.9072 28.4809 55.7938 28.4809H52.3901C52.2766 28.4809 52.1852 28.3894 52.1852 28.2759Z" fill="#4C4646"/>
<path d="M63.2244 29.2993V30.5718C63.2244 30.6853 63.3158 30.7768 63.4293 30.7768H68.0336C68.147 30.7768 68.2385 30.6853 68.2385 30.5718V27.7795C68.2385 27.6659 68.147 27.5744 68.0336 27.5744H61.7884C61.7342 27.5744 61.6817 27.5524 61.6444 27.5151L59.4447 25.3141C59.4058 25.2752 59.3855 25.2243 59.3855 25.1701V16.4254C59.3855 16.3712 59.4075 16.3203 59.4447 16.2814L61.6461 14.0532C61.6851 14.0143 61.7376 13.9922 61.7918 13.9922H66.9295C66.9837 13.9922 67.0362 14.0143 67.0734 14.0515L68.3181 15.2969C68.4468 15.4257 68.6669 15.3342 68.6669 15.1529V14.1973C68.6669 14.0837 68.7584 13.9922 68.8718 13.9922H71.8505C71.9639 13.9922 72.0554 14.0837 72.0554 14.1973V31.5732C72.0554 31.6274 72.0334 31.6799 71.9944 31.7189L69.7676 33.9216C69.7287 33.9589 69.6779 33.9809 69.6237 33.9809H62.0051C61.9509 33.9809 61.8984 33.9589 61.8612 33.9216L59.6615 31.7206C59.6225 31.6816 59.6022 31.6308 59.6022 31.5766V29.3044C59.6022 29.1909 59.6936 29.0994 59.8071 29.0994H63.0245C63.138 29.0994 63.2294 29.1909 63.2294 29.3044L63.2244 29.2993ZM63.4022 24.4771H68.0336C68.147 24.4771 68.2385 24.3856 68.2385 24.2721V18.5112C68.2385 18.4536 68.2131 18.3976 68.1708 18.3587L67.3105 17.5911C67.2733 17.5572 67.2241 17.5386 67.175 17.5386H63.4039C63.2904 17.5386 63.199 17.6301 63.199 17.7436V24.2721C63.199 24.3856 63.2904 24.4771 63.4039 24.4771H63.4022Z" fill="#4C4646"/>
<path d="M79.4385 24.7092V28.2759C79.4385 28.3894 79.3471 28.4809 79.2336 28.4809H75.5624C75.4489 28.4809 75.3575 28.3894 75.3575 28.2759V24.7092C75.3575 24.5957 75.4489 24.5042 75.5624 24.5042H79.2336C79.3471 24.5042 79.4385 24.5957 79.4385 24.7092Z" fill="#4C4646"/>
<path d="M82.6746 28.2759V14.1956C82.6746 14.082 82.7661 13.9905 82.8795 13.9905H85.8582C85.9716 13.9905 86.0631 14.082 86.0631 14.1956V15.1461C86.0631 15.3291 86.2849 15.4206 86.4136 15.2901L87.6295 14.0532C87.6684 14.0143 87.7209 13.9922 87.7751 13.9922H92.9112C92.9653 13.9922 93.0178 14.0143 93.0551 14.0515L95.2819 16.2797C95.3208 16.3186 95.3412 16.3695 95.3412 16.4237V28.2759C95.3412 28.3894 95.2497 28.4809 95.1363 28.4809H91.7309C91.6174 28.4809 91.526 28.3894 91.526 28.2759V17.7436C91.526 17.6301 91.4345 17.5386 91.3211 17.5386H87.5499C87.4991 17.5386 87.4517 17.5572 87.4144 17.5911L86.5542 18.3587C86.5101 18.3976 86.4864 18.4536 86.4864 18.5112V28.2742C86.4864 28.3877 86.395 28.4792 86.2815 28.4792H82.8761C82.7627 28.4792 82.6712 28.3877 82.6712 28.2742L82.6746 28.2759Z" fill="#4C4646"/>
<path d="M107.208 23.4368H110.48C110.594 23.4368 110.685 23.5282 110.685 23.6418V26.0478C110.685 26.102 110.663 26.1529 110.626 26.1918L108.424 28.4199C108.385 28.4589 108.333 28.4809 108.279 28.4809H100.875C100.821 28.4809 100.768 28.4589 100.73 28.4199L98.5281 26.1918C98.4909 26.1529 98.4688 26.102 98.4688 26.0478V16.422C98.4688 16.3678 98.4909 16.3169 98.5281 16.278L100.73 14.0499C100.768 14.0109 100.821 13.9889 100.875 13.9889H108.279C108.333 13.9889 108.385 14.0109 108.424 14.0499L110.626 16.278C110.663 16.3169 110.685 16.3678 110.685 16.422V21.7373C110.685 21.8508 110.594 21.9423 110.48 21.9423H102.408C102.294 21.9423 102.203 22.0338 102.203 22.1473V25.1803C102.203 25.2938 102.294 25.3853 102.408 25.3853H106.799C106.912 25.3853 107.004 25.2938 107.004 25.1803V23.6418C107.004 23.5282 107.095 23.4368 107.208 23.4368ZM102.203 17.2912V19.8175C102.203 19.9311 102.294 20.0226 102.408 20.0226H106.799C106.912 20.0226 107.004 19.9311 107.004 19.8175V17.2912C107.004 17.1777 106.912 17.0862 106.799 17.0862H102.408C102.294 17.0862 102.203 17.1777 102.203 17.2912Z" fill="#4C4646"/>
<path d="M117.525 28.4199L115.298 26.1918C115.259 26.1529 115.238 26.102 115.238 26.0478V17.237C115.238 17.1235 115.147 17.032 115.034 17.032H113.548C113.435 17.032 113.344 16.9405 113.344 16.827V14.1939C113.344 14.0804 113.435 13.9889 113.548 13.9889H115.034C115.147 13.9889 115.238 13.8974 115.238 13.7838V11.0982C115.238 10.9847 115.33 10.8932 115.443 10.8932H118.849C118.962 10.8932 119.054 10.9847 119.054 11.0982V13.7838C119.054 13.8974 119.145 13.9889 119.259 13.9889H122.583C122.696 13.9889 122.788 14.0804 122.788 14.1939V16.827C122.788 16.9405 122.696 17.032 122.583 17.032H119.259C119.145 17.032 119.054 17.1235 119.054 17.237V24.7262C119.054 24.8397 119.145 24.9312 119.259 24.9312H122.796C122.91 24.9312 123.001 25.0227 123.001 25.1362V28.2759C123.001 28.3894 122.91 28.4809 122.796 28.4809H117.672C117.618 28.4809 117.565 28.4589 117.528 28.4216L117.525 28.4199Z" fill="#4C4646"/>
<path d="M129.117 28.3386L125.467 17.0896C125.46 17.0692 125.456 17.0472 125.456 17.0269V14.1956C125.456 14.082 125.548 13.9905 125.661 13.9905H129.067C129.18 13.9905 129.272 14.082 129.272 14.1956V16.444C129.272 16.4627 129.275 16.483 129.28 16.4999L131.354 23.7028C131.41 23.8959 131.683 23.901 131.746 23.7095L134.089 16.5033C134.096 16.483 134.099 16.461 134.099 16.4406V14.1956C134.099 14.082 134.191 13.9905 134.304 13.9905H137.71C137.823 13.9905 137.915 14.082 137.915 14.1956V16.4406C137.915 16.4627 137.918 16.483 137.925 16.5033L140.245 23.6858C140.307 23.8773 140.578 23.8739 140.636 23.6807L142.734 16.5016C142.739 16.483 142.743 16.4644 142.743 16.444V14.1956C142.743 14.082 142.834 13.9905 142.947 13.9905H146.351C146.465 13.9905 146.556 14.082 146.556 14.1956V17.0269C146.556 17.0489 146.553 17.0692 146.546 17.0896L142.895 28.3386C142.868 28.4233 142.788 28.4792 142.7 28.4792H138.756C138.668 28.4792 138.589 28.4216 138.562 28.3369L136.213 21.0934C136.152 20.9053 135.886 20.9053 135.823 21.0934L133.425 28.3386C133.398 28.4216 133.319 28.4792 133.231 28.4792H129.314C129.226 28.4792 129.146 28.4216 129.119 28.3386H129.117Z" fill="#4C4646"/>
<path d="M159.211 14.0499L161.438 16.278C161.476 16.3169 161.497 16.3678 161.497 16.422V26.0461C161.497 26.1003 161.475 26.1529 161.438 26.1901L159.211 28.4182C159.172 28.4572 159.121 28.4776 159.067 28.4776H151.37C151.316 28.4776 151.264 28.4555 151.225 28.4166L149.023 26.1884C148.986 26.1495 148.964 26.0986 148.964 26.0444V16.4186C148.964 16.3644 148.986 16.3136 149.023 16.2746L151.225 14.0465C151.264 14.0075 151.316 13.9855 151.37 13.9855H159.067C159.121 13.9855 159.173 14.0075 159.211 14.0448V14.0499ZM157.48 17.459H152.982C152.869 17.459 152.778 17.5505 152.778 17.664V24.8058C152.778 24.9193 152.869 25.0108 152.982 25.0108H157.48C157.593 25.0108 157.685 24.9193 157.685 24.8058V17.664C157.685 17.5505 157.593 17.459 157.48 17.459Z" fill="#4C4646"/>
<path d="M164.885 28.2759V14.1956C164.885 14.082 164.977 13.9905 165.09 13.9905H168.069C168.182 13.9905 168.274 14.082 168.274 14.1956V15.4443C168.274 15.6273 168.494 15.7171 168.623 15.5884L170.16 14.0499C170.199 14.0109 170.25 13.9905 170.304 13.9905H173.269C173.383 13.9905 173.474 14.082 173.474 14.1956V17.442C173.474 17.5555 173.383 17.647 173.269 17.647H169.901C169.85 17.647 169.799 17.6674 169.762 17.7013L168.766 18.6264C168.724 18.6654 168.7 18.7196 168.7 18.7772V28.2759C168.7 28.3894 168.609 28.4809 168.496 28.4809H165.092C164.978 28.4809 164.887 28.3894 164.887 28.2759H164.885Z" fill="#4C4646"/>
<path d="M175.811 28.2759V8.85825C175.811 8.74473 175.902 8.65323 176.016 8.65323H179.421C179.535 8.65323 179.626 8.74473 179.626 8.85825V19.2533C179.626 19.4278 179.833 19.5227 179.965 19.4075L183.902 15.9984C183.948 15.9594 183.973 15.9035 183.973 15.8442V14.1939C183.973 14.0804 184.065 13.9889 184.178 13.9889H187.583C187.697 13.9889 187.788 14.0804 187.788 14.1939V16.9896C187.788 17.0489 187.761 17.1065 187.716 17.1455L184.359 20.0022C184.278 20.0717 184.263 20.1937 184.327 20.2801L187.961 25.1955C187.986 25.2311 188.002 25.2735 188.002 25.3175V28.2742C188.002 28.3877 187.91 28.4792 187.797 28.4792H184.393C184.28 28.4792 184.188 28.3877 184.188 28.2742V26.2223C184.188 26.18 184.175 26.1393 184.151 26.1054L181.702 22.6048C181.633 22.5065 181.496 22.4879 181.404 22.5658L179.702 23.9891C179.657 24.0281 179.63 24.0857 179.63 24.1467V28.2759C179.63 28.3894 179.538 28.4809 179.425 28.4809H176.019C175.906 28.4809 175.814 28.3894 175.814 28.2759H175.811Z" fill="#4C4646"/>
</g>
<defs>
<clipPath id="clip0_293_4789">
<rect width="188" height="38" fill="white"/>
</clipPath>
</defs>
</svg>
